<?xml version="1.0" encoding="utf-8"?>
<!-- Generator: Adobe Illustrator 18.0.0, SVG Export Plug-In . SVG Version: 6.00 Build 0)  -->
<!DOCTYPE svg PUBLIC "-//W3C//DTD SVG 1.1//EN" "http://www.w3.org/Graphics/SVG/1.1/DTD/svg11.dtd">
<svg version="1.1" id="Layer_1" xmlns="http://www.w3.org/2000/svg" xmlns:xlink="http://www.w3.org/1999/xlink" x="0px" y="0px"
	 viewBox="0 0 64 64" enable-background="new 0 0 64 64" xml:space="preserve">
<g>
	<g>
		<g>
			<path fill="#000000" d="M48.7,20.1l-4.8-4.8c-0.8-0.8-2-1.3-3.2-1.3s-2.3,0.5-3.2,1.3L33,20l3.2,3.2l4.6-4.7l4.8,4.7L32.9,35.9
				l-2.7-2.7L27,36.4l2.7,2.7c0.8,0.8,2,1.3,3.2,1.3c1.2,0,2.3-0.5,3.2-1.3l12.6-12.6C50.4,24.7,50.4,21.8,48.7,20.1z"/>
		</g>
	</g>
	<g>
		<g>
			<path fill="#000000" d="M23.2,45.5l-4.8-4.7l12.3-12.2l2.7,2.7l3.2-3.2l-2.7-2.7c-0.8-0.8-2-1.3-3.2-1.3c-1.2,0-2.3,0.5-3.2,1.3
				L15.3,37.6c-1.8,1.8-1.8,4.6,0,6.4l4.8,4.8c0.8,0.8,2,1.3,3.2,1.3s2.3-0.5,3.2-1.3l3.8-3.7L27,41.8L23.2,45.5z"/>
		</g>
	</g>
</g>
</svg>
